# xmcd
# 
# Track frame offsets:
#     150
#     13500
#     31038
#     47488
#     59975
#     83900
#     100050
#     114838
#     130788
#     147488
#     166038
#     180313
#     198963
#     210313
#     239525
#     249200
# 
# Disc length: 3485
# 
# Revision: 3
# Processed by: cddbd v1.5.2PL0 Copyright (c) Steve Scherf et al.
# Submitted via: fre:ac v1.0.31
# 
DISCID=c60d9b10
DTITLE=Various Artist - The Best of Everlasting Favourites
DYEAR=0
DGENRE=Oldies
TTITLE0=Brian Hyland - Sealed with a kiss
TTITLE1=The Platters - Great prentender
TTITLE2=Righteous Brothers - Unchained melody
TTITLE3=Patti Page - Tennessee waltz
TTITLE4=Julie Rogers - The wedding
TTITLE5=Patti Page - Changing partners
TTITLE6=Elvis Presley - Are you lonesome tonight
TTITLE7=Debbie Reynolds - Tammy
TTITLE8=Engelbery Humperdinck - The last waltz
TTITLE9=Petula Clark - Kiss me goodbye
TTITLE10=Dana - All kind of my everything
TTITLE11=Beatles - Let it be
TTITLE12=Beatles - And I love her
TTITLE13=Beatles - Hey Jude
TTITLE14=Cliff Richard - Summer holiday
TTITLE15=Lulu - To sir with love
EXTD=
EXTT0=
EXTT1=
EXTT2=
EXTT3=
EXTT4=
EXTT5=
EXTT6=
EXTT7=
EXTT8=
EXTT9=
EXTT10=
EXTT11=
EXTT12=
EXTT13=
EXTT14=
EXTT15=
PLAYORDER=
